<?xml version="1.0" encoding="UTF-8" standalone="no"?>
<!-- Created with Inkscape (http://www.inkscape.org/) -->

<svg
   xmlns:dc="http://purl.org/dc/elements/1.1/"
   xmlns:cc="http://creativecommons.org/ns#"
   xmlns:rdf="http://www.w3.org/1999/02/22-rdf-syntax-ns#"
   xmlns:svg="http://www.w3.org/2000/svg"
   xmlns="http://www.w3.org/2000/svg"
   xmlns:sodipodi="http://sodipodi.sourceforge.net/DTD/sodipodi-0.dtd"
   xmlns:inkscape="http://www.inkscape.org/namespaces/inkscape"
   width="207.2029"
   height="223.08543"
   id="svg2"
   version="1.1"
   inkscape:version="0.48.0 r9654"
   sodipodi:docname="New document 1">
  <defs
     id="defs4" />
  <sodipodi:namedview
     id="base"
     pagecolor="#ffffff"
     bordercolor="#666666"
     borderopacity="1.0"
     inkscape:pageopacity="0.0"
     inkscape:pageshadow="2"
     inkscape:zoom="1.3169699"
     inkscape:cx="108.95445"
     inkscape:cy="116.18276"
     inkscape:document-units="px"
     inkscape:current-layer="layer1"
     showgrid="false"
     fit-margin-top="10"
     fit-margin-left="10"
     fit-margin-right="10"
     fit-margin-bottom="10"
     inkscape:window-width="1247"
     inkscape:window-height="803"
     inkscape:window-x="265"
     inkscape:window-y="51"
     inkscape:window-maximized="0" />
  <metadata
     id="metadata7">
    <rdf:RDF>
      <cc:Work
         rdf:about="">
        <dc:format>image/svg+xml</dc:format>
        <dc:type
           rdf:resource="http://purl.org/dc/dcmitype/StillImage" />
        <dc:title></dc:title>
      </cc:Work>
    </rdf:RDF>
  </metadata>
  <g
     inkscape:label="Layer 1"
     inkscape:groupmode="layer"
     id="layer1"
     transform="translate(-189.2531,-398.83456)">
    <path
       sodipodi:type="arc"
       style="fill:#004aff;fill-opacity:1;stroke:none"
       id="path3003"
       sodipodi:cx="238.80577"
       sodipodi:cy="473.76126"
       sodipodi:rx="49.735382"
       sodipodi:ry="66.060738"
       d="m 288.54115,473.76126 a 49.735382,66.060738 0 1 1 -99.47076,0 49.735382,66.060738 0 1 1 99.47076,0 z"
       transform="matrix(1.1342502,-0.07726815,0.08275775,0.99718513,-23.442665,21.304292)" />
    <path
       style="fill:none;stroke:#000000;stroke-width:6.3034811px;stroke-linecap:butt;stroke-linejoin:miter;stroke-opacity:1"
       d="m 259.53548,416.05302 c -34.36105,25.81684 -29.3326,64.5421 -22.62801,80.48779 6.70459,15.9457 29.3326,48.59641 54.47483,46.31845 25.14224,-2.27796 46.0941,-21.26093 46.93217,-42.52185 0.83807,-21.26093 5.86652,-44.0405 -10.89497,-63.78278 -16.76149,-19.74229 -36.87528,-31.13208 -67.88402,-20.50161 z"
       id="path3001"
       inkscape:connector-curvature="0" />
    <path
       style="fill:#004aff;fill-opacity:1;stroke:#000000;stroke-width:6px;stroke-linecap:butt;stroke-linejoin:miter;stroke-opacity:1"
       d="m 232.35156,465.40874 c -21.26093,6.07455 -32.65071,34.16935 -29.61344,37.96594 3.03728,3.7966 7.37555,0.48851 32.65071,-12.1491 3.03727,-1.51864 -3.03727,-25.81684 -3.03727,-25.81684 z"
       id="path3007"
       inkscape:connector-curvature="0"
       sodipodi:nodetypes="cssc" />
    <path
       style="fill:#004aff;fill-opacity:1;stroke:#000000;stroke-width:6px;stroke-linecap:butt;stroke-linejoin:miter;stroke-opacity:1"
       d="m 334.10028,445.66645 c 10.63046,-17.46434 49.35572,8.3525 49.35572,19.74229 0,11.38978 -23.8075,3.24561 -43.28118,-1e-5 -4.5559,-0.75932 -6.07454,-19.74228 -6.07454,-19.74228 z"
       id="path3009"
       inkscape:connector-curvature="0"
       sodipodi:nodetypes="cssc" />
    <path
       style="fill:none;stroke:#000000;stroke-width:6px;stroke-linecap:round;stroke-linejoin:miter;stroke-opacity:1"
       d="m 269.55818,532.98811 c 7.59319,17.46434 -4.55591,26.57616 -1.51864,43.28118 3.03728,16.70501 5.31523,30.37275 5.31523,30.37275"
       id="path3011"
       inkscape:connector-curvature="0" />
    <path
       style="fill:none;stroke:#000000;stroke-width:6;stroke-linecap:round;stroke-linejoin:miter;stroke-miterlimit:4;stroke-opacity:1;stroke-dasharray:none"
       d="m 315.87662,528.4322 c -3.79659,30.37275 4.55591,32.65071 6.07455,50.87436 1.51864,18.22365 1.51864,18.98297 1.51864,18.98297"
       id="path3013"
       inkscape:connector-curvature="0" />
    <path
       style="fill:none;stroke:#000000;stroke-width:6;stroke-linecap:round;stroke-linejoin:miter;stroke-miterlimit:4;stroke-opacity:1;stroke-dasharray:none"
       d="m 240.70407,608.92 c 17.46433,-20.50161 15.94569,-19.74229 23.53888,-22.02025 7.59319,-2.27795 24.2982,9.87115 27.33548,15.18638 3.03727,5.31523 3.03727,5.31523 3.03727,5.31523"
       id="path3783"
       inkscape:connector-curvature="0" />
    <path
       style="fill:none;stroke:#000000;stroke-width:6;stroke-linecap:round;stroke-linejoin:miter;stroke-miterlimit:4;stroke-opacity:1;stroke-dasharray:none"
       d="m 302.20889,598.28953 c 6.83387,-25.05752 12.90842,-23.53888 17.46433,-25.81684 4.55591,-2.27795 24.2982,11.38979 27.33548,16.70502 3.03727,5.31523 3.79659,5.31523 3.79659,5.31523"
       id="path3785"
       inkscape:connector-curvature="0" />
    <path
       style="fill:none;stroke:#000000;stroke-width:4.7195487;stroke-linecap:butt;stroke-linejoin:miter;stroke-miterlimit:4;stroke-opacity:1;stroke-dasharray:none"
       d="m 288.25965,443.63792 c 0,0 -1.96448,-0.66949 -1.54352,-3.5706 0.42096,-2.90111 1.82415,-2.23162 2.24512,-2.00846 0.42095,0.22316 1.40319,1.11582 0.98223,2.90111 -0.42096,1.78531 -0.7016,2.45479 -1.68383,2.67795 z"
       id="path3795"
       inkscape:connector-curvature="0" />
    <path
       inkscape:connector-curvature="0"
       id="path3819"
       d="m 265.29225,452.98207 c 0,0 -3.17504,-0.8796 -2.49467,-4.69122 0.68036,-3.8116 2.94824,-2.93199 3.62861,-2.6388 0.68036,0.29319 2.26788,1.46602 1.58751,3.81162 -0.68036,2.34561 -1.13394,3.2252 -2.72145,3.5184 z"
       style="fill:none;stroke:#000000;stroke-width:6.87738419;stroke-linecap:butt;stroke-linejoin:miter;stroke-miterlimit:4;stroke-opacity:1;stroke-dasharray:none" />
    <path
       style="fill:#ffff00;stroke:#000000;stroke-width:6;stroke-linecap:butt;stroke-linejoin:miter;stroke-miterlimit:4;stroke-opacity:1;stroke-dasharray:none"
       d="m 286.26318,484.62364 c 5.69489,-14.32996 20.50161,-33.62027 22.39991,-30.86451 1.89829,2.75577 -3.7966,20.39262 -3.41694,22.04608 0.37966,1.65344 12.52876,19.29031 12.1491,21.49491 -0.37966,2.20461 -31.13207,-12.67648 -31.13207,-12.67648 z"
       id="path3821"
       inkscape:connector-curvature="0" />
  </g>
</svg>
